<?xml version="1.0" standalone="no"?>
<!DOCTYPE svg PUBLIC "-//W3C//DTD SVG 20010904//EN"
 "http://www.w3.org/TR/2001/REC-SVG-20010904/DTD/svg10.dtd">
<svg version="1.0" xmlns="http://www.w3.org/2000/svg"
 width="800.000000pt" height="800.000000pt" viewBox="0 0 800.000000 800.000000"
 preserveAspectRatio="xMidYMid meet">
<metadata>
Created by potrace 1.15, written by Peter Selinger 2001-2017
</metadata>
<g transform="translate(0.000000,800.000000) scale(0.100000,-0.100000)"
fill="#000000" stroke="none">
<path d="M0 4000 l0 -4000 4000 0 4000 0 0 4000 0 4000 -4000 0 -4000 0 0
-4000z m4373 3805 c782 -83 1460 -375 2051 -881 681 -583 1114 -1362 1260
-2264 47 -292 52 -719 11 -1032 -121 -927 -575 -1757 -1301 -2379 -185 -158
-472 -347 -719 -472 -720 -365 -1536 -482 -2345 -337 -745 134 -1433 501
-1982 1057 -507 514 -864 1187 -997 1884 -181 940 -9 1875 493 2687 205 332
514 680 821 927 369 298 851 551 1278 674 59 17 111 32 115 35 31 19 447 89
652 109 107 11 534 6 663 -8z"/>
<path d="M3595 7570 c-785 -98 -1473 -427 -2029 -970 -220 -215 -374 -407
-551 -690 -246 -392 -412 -871 -481 -1390 -26 -189 -26 -660 0 -840 61 -438
161 -768 338 -1128 322 -650 855 -1198 1498 -1540 361 -191 767 -319 1195
-377 163 -22 535 -30 710 -16 473 40 899 160 1308 369 388 199 717 449 1011
772 319 349 589 816 735 1273 234 731 222 1503 -35 2241 -254 732 -808 1411
-1484 1818 -410 247 -860 405 -1350 474 -184 26 -674 28 -865 4z m715 -201
c1124 -102 2136 -799 2634 -1813 178 -362 277 -704 322 -1111 20 -179 14 -638
-10 -790 -65 -408 -154 -690 -321 -1025 -467 -934 -1373 -1603 -2400 -1769
-351 -57 -779 -53 -1120 9 -393 72 -761 212 -1108 422 -750 453 -1298 1200
-1497 2043 -245 1036 16 2109 706 2905 506 584 1175 964 1924 1095 80 14 186
29 235 34 130 12 501 13 635 0z"/>
<path d="M3785 7153 c-22 -2 -96 -10 -165 -19 -860 -106 -1636 -576 -2132
-1294 -362 -522 -542 -1105 -541 -1750 0 -723 249 -1402 718 -1960 504 -599
1217 -981 2000 -1069 258 -29 534 -23 811 19 799 121 1531 572 2016 1244 191
265 366 630 452 941 76 276 105 468 113 740 25 843 -276 1623 -856 2219 -460
471 -1016 770 -1651 887 -217 40 -567 59 -765 42z m2239 -1439 c21 -20 41 -46
45 -58 5 -11 4 -104 -1 -206 -7 -124 -6 -261 1 -415 6 -126 11 -394 11 -594 0
-313 2 -367 15 -381 14 -15 14 -18 0 -30 -11 -9 -15 -33 -15 -94 -1 -189 -56
-440 -118 -531 -30 -43 -132 -117 -227 -164 -45 -22 -90 -33 -180 -45 -107
-14 -128 -14 -190 -1 -75 16 -198 71 -288 128 -50 32 -60 44 -96 122 -85 182
-93 216 -102 460 -4 121 -11 364 -14 540 -4 211 -11 345 -21 393 -10 54 -11
79 -3 93 6 11 15 94 21 184 10 151 9 172 -11 285 -39 214 -14 281 114 314 74
20 177 21 213 2 15 -8 33 -25 39 -38 8 -16 16 -200 25 -583 14 -601 14 -610 8
-965 -3 -243 3 -302 45 -416 25 -67 106 -114 196 -114 134 0 196 88 218 305
12 120 -1 633 -19 759 -7 41 -8 153 -4 280 5 155 2 276 -10 454 l-17 244 27
39 c27 39 27 39 98 40 39 0 89 6 111 14 67 22 89 18 129 -21z m-2299 -92 c17
-6 54 -13 82 -17 45 -5 52 -3 47 10 -8 20 11 19 82 -6 39 -13 71 -18 94 -14
104 19 146 17 225 -10 144 -48 251 -141 316 -276 45 -92 55 -123 74 -230 19
-105 19 -344 1 -419 -15 -65 -44 -122 -84 -169 l-29 -35 48 -78 c128 -211 160
-415 99 -632 -37 -132 -68 -193 -160 -321 -94 -130 -115 -151 -175 -183 l-50
-27 -310 -2 c-170 -1 -328 -2 -350 -2 -22 -1 -78 0 -125 1 l-85 3 -2 125 c-1
69 -2 139 -2 155 0 34 5 205 19 625 6 188 6 371 0 505 -5 116 -12 307 -16 425
-3 118 -8 276 -11 350 -4 129 -4 136 19 170 23 34 26 35 98 40 41 3 84 11 95
17 21 13 49 12 100 -5z m-1113 -6 c24 -8 76 -23 115 -35 85 -25 82 -21 131
-196 70 -253 110 -447 202 -985 97 -570 142 -804 199 -1035 28 -111 29 -121
13 -133 -29 -22 -84 -31 -211 -34 -112 -2 -124 -1 -138 17 -42 56 -63 138 -84
333 -11 101 -15 116 -37 133 -30 23 -63 24 -103 4 -27 -14 -32 -14 -51 0 -29
20 -100 19 -163 -3 -65 -22 -89 -64 -105 -181 -6 -47 -18 -113 -26 -147 -8
-33 -14 -79 -14 -102 l0 -42 -190 0 -190 0 0 61 c0 34 6 75 14 92 7 18 21 113
31 212 22 237 60 517 86 635 12 52 25 136 29 185 5 50 24 162 44 250 54 248
103 546 115 705 16 201 19 206 146 247 114 37 128 38 187 19z m2919 -2568 c5
-7 9 -43 9 -80 0 -66 -1 -68 -25 -68 l-25 0 0 -140 0 -140 25 0 c25 0 25 -1
25 -80 l0 -80 -119 0 -119 0 -4 58 c-5 85 0 102 30 102 l25 0 -6 83 c-4 45 -7
108 -7 140 0 54 -1 57 -25 57 -24 0 -25 2 -25 73 0 41 2 76 5 79 3 2 55 6 117
7 82 1 113 -1 119 -11z m433 -78 c4 -49 5 -94 1 -100 -3 -5 -37 -10 -76 -10
-62 0 -69 2 -69 20 0 17 -7 20 -40 20 -38 0 -40 -2 -40 -30 0 -29 2 -30 45
-30 l45 0 0 -80 0 -80 -45 0 c-43 0 -45 -1 -45 -30 0 -28 2 -30 40 -30 37 0
45 7 41 32 -2 12 40 19 94 16 l50 -3 3 -97 3 -96 -83 -7 c-46 -3 -135 -5 -198
-3 l-115 3 -3 78 c-2 66 0 77 13 77 15 0 16 14 9 138 -3 75 -11 139 -15 140
-5 2 -9 39 -9 83 l0 79 194 0 193 0 7 -90z m-1134 38 c1 -24 3 -60 6 -80 5
-31 3 -38 -12 -38 -15 0 -16 -17 -13 -217 l4 -218 -72 -3 -72 -3 -70 138 -70
138 0 -56 c-1 -42 3 -58 14 -63 13 -5 15 -21 13 -83 l-3 -77 -89 -4 c-67 -3
-91 -1 -97 10 -5 7 -9 43 -9 81 0 56 3 67 16 67 15 0 16 14 11 137 -3 84 -10
139 -16 141 -7 2 -11 35 -11 83 l0 79 83 0 83 0 70 -135 69 -136 3 52 c2 40
-1 55 -12 61 -12 7 -16 26 -16 83 0 85 -4 82 113 84 l77 1 0 -42z m432 -35 l3
-78 -93 -129 c-110 -152 -113 -156 -79 -156 17 0 27 7 31 23 5 20 11 22 73 22
l68 0 3 -96 c3 -90 1 -97 -18 -102 -12 -3 -102 -6 -200 -7 l-180 -1 0 79 0 78
64 90 c36 49 78 107 94 129 46 64 47 65 13 65 -24 0 -31 -4 -31 -20 0 -18 -7
-20 -70 -20 -60 0 -70 3 -70 18 -1 9 -3 48 -6 87 -2 38 -2 75 0 82 4 10 50 13
200 13 l194 0 4 -77z m-1367 57 c3 -4 -5 -23 -18 -41 -12 -19 -35 -59 -51 -89
-16 -30 -38 -67 -48 -82 l-19 -28 55 0 56 0 1 -82 c1 -46 1 -86 0 -90 0 -4 8
-12 19 -18 17 -9 20 -21 20 -85 l0 -75 -100 0 -100 0 0 74 c0 41 5 78 10 81 6
3 10 13 10 21 0 11 -15 14 -65 14 -58 0 -65 -2 -65 -20 0 -11 6 -19 13 -18 8
2 13 -19 15 -74 l3 -77 -33 -6 c-18 -3 -62 -5 -98 -3 l-65 3 -3 74 c-2 53 1
77 10 82 10 6 12 40 9 141 -2 73 -7 136 -12 139 -6 3 -12 40 -14 82 l-5 77
100 0 100 0 0 -79 c0 -49 -4 -81 -11 -83 -6 -2 -9 -15 -7 -28 2 -21 10 -12 48
55 25 44 52 92 59 107 10 19 23 28 45 31 53 6 136 5 141 -3z m435 -90 l0 -101
-72 3 c-57 2 -73 6 -73 18 0 10 -13 16 -42 18 -42 3 -43 2 -43 -27 0 -30 1
-31 45 -31 l45 0 0 -80 0 -80 -46 0 c-44 0 -45 -1 -42 -27 3 -25 8 -28 45 -31
36 -3 42 0 45 18 3 20 10 22 68 23 l65 2 0 -100 0 -100 -191 -3 -192 -2 -4 72
c-4 54 -2 76 8 84 11 8 14 45 14 148 0 114 -2 136 -15 136 -12 0 -15 16 -15
80 l0 80 200 0 200 0 0 -100z m-972 46 c39 -41 42 -48 42 -100 l0 -56 -65 0
c-36 0 -68 -1 -72 -2 -5 -2 -9 7 -11 19 -3 22 -9 24 -75 14 -4 0 -6 -61 -5
-133 l3 -133 43 -3 c37 -3 42 -1 42 17 0 19 6 21 70 21 l70 0 0 -62 c0 -58 -2
-65 -37 -100 l-37 -38 -112 0 -112 0 -36 40 -36 40 0 218 0 217 33 37 c34 39
41 41 198 46 53 2 57 0 97 -42z m-867 -16 c1 -27 2 -63 3 -80 1 -18 -4 -30
-11 -30 -10 0 -13 -35 -13 -140 0 -118 2 -140 15 -140 12 0 15 -15 15 -79 l0
-80 -94 -3 -94 -3 -6 35 c-11 66 -7 120 9 126 11 5 15 23 15 78 l-1 71 -40
-77 c-21 -43 -44 -78 -49 -78 -5 0 -27 33 -50 73 l-40 72 0 -72 c0 -54 3 -73
13 -73 10 0 13 -19 13 -77 l-1 -78 -97 -3 -98 -3 0 81 c0 47 4 80 10 80 6 0
10 53 10 139 0 116 -3 140 -15 145 -13 5 -15 20 -13 78 l3 73 86 3 c86 3 86 3
98 -25 6 -15 26 -52 44 -81 l33 -52 42 79 c24 44 47 81 53 83 6 2 44 4 85 6
l74 3 1 -51z m423 -142 c25 -106 46 -199 46 -205 0 -7 9 -22 20 -33 18 -18 20
-31 18 -93 l-3 -72 -97 -3 -98 -3 0 81 c0 50 4 80 11 80 6 0 9 8 7 18 -2 9 -9
17 -16 16 -6 -1 -30 -2 -52 -2 -28 -2 -40 -6 -40 -17 0 -8 5 -15 10 -15 6 0
10 -33 10 -80 l0 -80 -100 0 -100 0 0 80 c0 59 3 80 13 80 9 0 27 65 57 208
23 114 45 213 48 220 3 8 35 12 112 12 l108 0 46 -192z"/>
<path d="M5860 4645 c0 -16 -6 -25 -15 -25 -8 0 -15 7 -15 15 0 8 -4 15 -10
15 -16 0 -12 -28 6 -38 14 -8 14 -10 1 -24 -10 -9 -18 -45 -22 -96 -8 -90 -2
-132 20 -132 12 0 12 -5 3 -27 -10 -26 -24 -504 -16 -572 3 -28 -6 -54 -32
-86 -33 -41 -33 -54 -2 -34 11 7 27 9 35 6 13 -5 14 -12 6 -35 -7 -21 -6 -35
4 -54 15 -30 31 -25 34 12 1 14 5 59 9 101 5 52 3 82 -6 98 -10 20 -9 26 9 45
18 19 21 35 21 105 0 68 -4 87 -20 108 -24 31 -26 60 -3 85 14 16 15 18 0 18
-24 0 -30 18 -17 51 15 35 27 37 33 7 2 -13 5 6 6 42 1 50 -2 61 -11 52 -18
-18 -28 -15 -28 8 0 16 5 19 24 14 22 -5 24 -3 31 60 3 36 3 71 -1 77 -4 6 -6
42 -5 80 1 41 -4 82 -13 103 -8 19 -12 37 -8 40 3 3 0 6 -6 6 -7 0 -12 -11
-12 -25z"/>
<path d="M4954 4238 c-9 -28 -8 -353 2 -426 7 -52 21 -71 45 -57 8 6 7 10 -2
16 -11 8 -10 12 5 24 17 13 18 15 3 15 -19 0 -22 11 -7 26 16 16 25 104 10
104 -10 0 -11 16 -6 69 7 64 6 70 -13 76 -27 8 -26 23 1 52 l22 23 -23 16
c-20 15 -21 17 -7 33 15 16 14 19 -3 35 -18 17 -20 16 -27 -6z"/>
<path d="M3942 5195 c-87 -20 -95 -48 -66 -230 9 -55 17 -148 17 -206 2 -136
5 -139 106 -139 81 1 139 16 173 47 11 10 39 56 60 103 39 83 40 87 35 175 -5
103 -27 166 -66 194 -14 10 -67 30 -116 43 -81 22 -95 24 -143 13z"/>
<path d="M3884 4266 l-32 -14 14 -64 c10 -47 12 -108 7 -238 l-6 -175 29 -47
c26 -43 33 -48 64 -48 19 0 62 7 95 14 68 16 78 26 145 143 43 74 45 82 44
153 -1 207 -78 291 -263 290 -36 -1 -80 -7 -97 -14z"/>
<path d="M3982 3559 c-33 -32 -33 -49 2 -79 25 -20 19 -31 -15 -25 l-31 6 24
-42 c12 -24 28 -44 35 -46 16 -6 53 55 53 88 0 36 4 38 55 26 39 -9 48 -8 65
8 18 16 19 20 6 33 -13 13 -18 12 -42 -7 -38 -30 -48 -27 -70 21 -10 24 -26
44 -34 46 -9 1 -30 -11 -48 -29z"/>
<path d="M2576 4879 c-10 -29 -68 -408 -83 -541 -16 -141 -12 -246 10 -253 7
-2 58 -5 115 -7 l102 -4 0 56 c0 30 -7 98 -15 150 -19 118 -115 604 -121 609
-2 2 -6 -2 -8 -10z"/>
<path d="M2583 4022 c-6 -4 -14 -19 -18 -33 -5 -22 -1 -31 27 -54 l33 -27 -27
5 -28 4 0 -67 0 -68 54 17 c87 27 114 62 81 105 -10 13 -13 34 -10 60 4 36 4
38 -4 11 -5 -16 -12 -47 -16 -68 -7 -44 -28 -45 -33 -2 -2 16 -11 35 -20 41
-15 11 -15 16 -4 34 7 12 12 23 10 24 -2 1 -10 7 -18 13 -9 7 -21 9 -27 5z"/>
</g>
</svg>
