<?xml version="1.0" encoding="UTF-8" standalone="no"?>
<!-- Created with Inkscape (http://www.inkscape.org/) -->
<svg id="svg11283" xmlns:rdf="http://www.w3.org/1999/02/22-rdf-syntax-ns#" xmlns="http://www.w3.org/2000/svg" height="146.44" width="150" version="1.1" xmlns:cc="http://creativecommons.org/ns#" xmlns:dc="http://purl.org/dc/elements/1.1/" viewBox="0 0 150 146.44468">
 <metadata id="metadata11288">
  <rdf:RDF>
   <cc:Work rdf:about="">
    <dc:format>image/svg+xml</dc:format>
    <dc:type rdf:resource="http://purl.org/dc/dcmitype/StillImage"/>
    <dc:title/>
   </cc:Work>
  </rdf:RDF>
 </metadata>
 <g id="layer1" transform="translate(-578.56 -428.48)">
  <path id="path4268-7" style="fill:#f00;stroke-width:0;fill-rule:evenodd" d="m578.56 493.43 37.5-21.65-37.5 64.96z"/>
  <path id="path4264-6" style="stroke-width:0;fill:#8b0000;fill-rule:evenodd" d="m653.56 493.43v43.301l-37.5-21.651v-43.301z"/>
  <path id="path4270-0" style="fill:#f00;stroke-width:0;fill-rule:evenodd" d="m691.06 471.78-37.5 64.952v-43.301z"/>
  <path id="path4272-97" style="stroke-width:0;fill:#cf0000;fill-rule:evenodd" d="m691.06 471.78v43.301l-37.5 21.651z"/>
  <path id="path4274-5" style="stroke-width:0;fill:#8b0000;fill-rule:evenodd" d="m691.06 471.78 37.5 21.651v43.301l-37.5-21.651z"/>
  <path id="path4256-9" style="stroke-width:0;fill:#d8d8d8;fill-rule:evenodd" d="m616.06 428.48-37.5 21.651 37.5 21.651 37.5-21.651z"/>
  <path id="path4254-7" style="stroke-width:0;fill:#d8d8d8;fill-rule:evenodd" d="m653.56 450.13-37.5 21.651 37.5 21.651 37.5-21.651z"/>
  <path id="path4260-8" style="stroke-width:0;fill:#d8d8d8;fill-rule:evenodd" d="m653.56 450.13 37.5-21.651 37.5 21.651-37.5 21.651z"/>
  <path id="path4258-5" style="stroke-width:0;fill:#474747;fill-rule:evenodd" d="m578.56 450.13 37.5 21.651-37.5 21.651z"/>
  <path id="path4262-3" style="stroke-width:0;fill:#ababab;fill-rule:evenodd" d="m728.56 450.13v43.301l-37.5-21.651z"/>
  <path id="path4266-38" style="stroke-width:0;fill:#cf0000;fill-rule:evenodd" d="m616.06 471.78v43.301l-37.5 21.651z"/>
  <g id="text5302-3" transform="matrix(1.0825 0 0 1.0825 -47.749 -47.45)">
   <path id="path14749" d="m581.92 549.64 6.431 16.05 6.431-16.05h3.3641v19.671h-2.594v-7.6604l0.24319-8.2684-6.458 15.929h-1.986l-6.4445-15.888 0.2567 8.2279v7.6604h-2.594v-19.671h3.3506z"/>
   <path id="path14751" d="m611.36 569.31q-0.21616-0.43233-0.35127-1.5402-1.7428 1.8104-4.1612 1.8104-2.1617 0-3.5533-1.2159-1.3781-1.2295-1.3781-3.1074 0-2.2833 1.7293-3.5398 1.7429-1.27 4.8908-1.27h2.4319v-1.1484q0-1.3105-0.78361-2.0806-0.78361-0.78361-2.3103-0.78361-1.3375 0-2.2428 0.67552-0.9052 0.67553-0.9052 1.6348h-2.513q0-1.0944 0.7701-2.1076 0.78361-1.0268 2.1076-1.6213 1.3375-0.59446 2.9318-0.59446 2.5265 0 3.9586 1.27 1.4321 1.2565 1.4862 3.4722v6.7282q0 2.0131 0.5134 3.202v0.21617h-2.621zm-4.1477-1.905q1.1754 0 2.2292-0.60797t1.5267-1.5807v-2.9993h-1.959q-4.5936 0-4.5936 2.6886 0 1.1754 0.78361 1.8374 0.78361 0.66201 2.0131 0.66201z"/>
   <path id="path14753" d="m623.28 567.54q1.3375 0 2.3373-0.81063 0.99977-0.81063 1.1079-2.0266h2.3643q-0.0676 1.2565-0.86468 2.3914-0.79712 1.1349-2.1347 1.8104-1.324 0.67552-2.8102 0.67552-2.9858 0-4.7557-1.986-1.7564-1.9996-1.7564-5.4582v-0.41883q0-2.1347 0.78361-3.7964 0.78361-1.6618 2.2427-2.5805 1.4726-0.91872 3.4722-0.91872 2.4589 0 4.0802 1.4726 1.6348 1.4726 1.7429 3.8235h-2.3643q-0.10809-1.4186-1.0808-2.3238-0.95925-0.91871-2.3778-0.91871-1.905 0-2.9588 1.3781-1.0403 1.3646-1.0403 3.9586v0.47287q0 2.5265 1.0403 3.891 1.0403 1.3646 2.9723 1.3646z"/>
   <path id="path14755" d="m635.98 562.54-1.5672 1.6348v5.134h-2.4994v-20.752h2.4994v12.551l1.3375-1.6078 4.553-4.8097h3.0399l-5.6879 6.1068 6.3499 8.5116h-2.9318l-5.0935-6.7688z"/>
   <path id="path14757" d="m648.95 567.19h9.3222v2.1212h-11.93v-19.671h2.6075v17.55z"/>
   <path id="path14759" d="m666.93 569.58q-2.9723 0-4.8368-1.9455-1.8644-1.959-1.8644-5.2286v-0.45936q0-2.1752 0.82414-3.8775 0.83765-1.7158 2.3238-2.6751 1.4997-0.97276 3.2425-0.97276 2.8507 0 4.4314 1.878t1.5807 5.3772v1.0403h-9.9032q0.054 2.1617 1.2565 3.4992 1.216 1.324 3.0804 1.324 1.324 0 2.2428-0.54042 0.91871-0.54042 1.6078-1.4321l1.5267 1.1889q-1.8374 2.8237-5.5123 2.8237zm-0.31074-13.105q-1.5132 0-2.54 1.1079-1.0268 1.0944-1.27 3.0804h7.3227v-0.18914q-0.10809-1.905-1.0268-2.9453-0.91871-1.0538-2.4859-1.0538z"/>
   <path id="path14761" d="m684.54 569.31q-0.21617-0.43233-0.35128-1.5402-1.7428 1.8104-4.1612 1.8104-2.1617 0-3.5533-1.2159-1.3781-1.2295-1.3781-3.1074 0-2.2833 1.7293-3.5398 1.7429-1.27 4.8908-1.27h2.4319v-1.1484q0-1.3105-0.78361-2.0806-0.78361-0.78361-2.3103-0.78361-1.3375 0-2.2427 0.67552-0.90521 0.67553-0.90521 1.6348h-2.513q0-1.0944 0.7701-2.1076 0.78361-1.0268 2.1076-1.6213 1.3375-0.59446 2.9318-0.59446 2.5265 0 3.9586 1.27 1.4321 1.2565 1.4862 3.4722v6.7282q0 2.0131 0.5134 3.202v0.21617h-2.621zm-4.1477-1.905q1.1754 0 2.2292-0.60797t1.5267-1.5807v-2.9993h-1.959q-4.5936 0-4.5936 2.6886 0 1.1754 0.78361 1.8374 0.78361 0.66201 2.0131 0.66201z"/>
   <path id="path14763" d="m702.94 562.16q0 3.3371-1.5267 5.3772t-4.1342 2.0401q-2.6616 0-4.1882-1.6888v7.039h-2.4994v-20.239h2.2833l0.12159 1.6213q1.5267-1.8915 4.2423-1.8915 2.6346 0 4.1612 1.986 1.5402 1.986 1.5402 5.5258v0.22968zm-2.4994-0.28372q0-2.4724-1.0538-3.9045t-2.8912-1.4321q-2.2698 0-3.4046 2.0131v6.9849q1.1214 1.9996 3.4317 1.9996 1.7969 0 2.8507-1.4186 1.0673-1.4321 1.0673-4.2423z"/>
   <path id="path14765" d="m714.61 565.43q0-1.0133-0.7701-1.5672-0.75659-0.56744-2.6616-0.97276-1.8915-0.40531-3.0128-0.97275-1.1079-0.56744-1.6483-1.351-0.52691-0.78361-0.52691-1.8644 0-1.7969 1.5132-3.0399 1.5267-1.243 3.891-1.243 2.4859 0 4.0261 1.2835 1.5537 1.2835 1.5537 3.283h-2.513q0-1.0268-0.87818-1.7699-0.86467-0.74308-2.1887-0.74308-1.3646 0-2.1347 0.59446t-0.7701 1.5537q0 0.9052 0.71606 1.3646 0.71605 0.45935 2.5805 0.87818 1.878 0.41883 3.0399 0.99978t1.7158 1.4051q0.56744 0.81063 0.56744 1.986 0 1.959-1.5672 3.148-1.5672 1.1754-4.0667 1.1754-1.7564 0-3.1074-0.62148t-2.1212-1.7294q-0.75659-1.1214-0.75659-2.4184h2.4994q0.0675 1.2565 0.99978 1.9996 0.94573 0.72957 2.4859 0.72957 1.4186 0 2.2698-0.56745 0.86468-0.58095 0.86468-1.5402z"/>
  </g>
 </g>
</svg>
