<?xml version="1.0"?>
<svg xmlns="http://www.w3.org/2000/svg" xmlns:xlink="http://www.w3.org/1999/xlink" version="1.1" viewBox="0 0 252 252" width="48px" height="48px"><g fill="none" fill-rule="nonzero" stroke="none" stroke-width="1" stroke-linecap="butt" stroke-linejoin="miter" stroke-miterlimit="10" stroke-dasharray="" stroke-dashoffset="0" font-family="none" font-weight="none" font-size="none" text-anchor="none" style="mix-blend-mode: normal"><path d="M0,252v-252h252v252z" fill="none"/><path d="M126,245.7c-66.10848,0 -119.7,-53.59152 -119.7,-119.7v0c0,-66.10848 53.59152,-119.7 119.7,-119.7h0c66.10848,0 119.7,53.59152 119.7,119.7v0c0,66.10848 -53.59152,119.7 -119.7,119.7z" fill="#ffffff"/><g fill="#cccccc"><path d="M168.21,55.65c-11.57265,0 -21.105,9.53236 -21.105,21.105c0,1.34335 0.1533,2.65306 0.39847,3.92971l-50.19308,29.28044c-3.68166,-3.11544 -8.37023,-5.07015 -13.52039,-5.07015c-11.57264,0 -21.105,9.53235 -21.105,21.105c0,11.57265 9.53236,21.105 21.105,21.105c5.15016,0 9.83873,-1.9547 13.52039,-5.07015l50.19308,29.2667c-0.24683,1.2808 -0.39847,2.59544 -0.39847,3.94345c0,11.57265 9.53235,21.105 21.105,21.105c11.57265,0 21.105,-9.53235 21.105,-21.105c0,-11.57265 -9.53235,-21.105 -21.105,-21.105c-5.15328,0 -9.83779,1.96507 -13.52039,5.08388l-50.19308,-29.29418c0.24517,-1.27666 0.39847,-2.58635 0.39847,-3.92971c0,-1.34335 -0.1533,-2.65305 -0.39847,-3.92971l50.19308,-29.28044c3.68166,3.11544 8.37023,5.07015 13.52039,5.07015c11.57265,0 21.105,-9.53236 21.105,-21.105c0,-11.57264 -9.53235,-21.105 -21.105,-21.105zM168.21,69.72c3.96865,0 7.035,3.06635 7.035,7.035c0,3.96865 -3.06635,7.035 -7.035,7.035c-3.96865,0 -7.035,-3.06635 -7.035,-7.035c0,-3.96865 3.06635,-7.035 7.035,-7.035zM83.79,118.965c3.96865,0 7.035,3.06635 7.035,7.035c0,3.96865 -3.06635,7.035 -7.035,7.035c-3.96865,0 -7.035,-3.06635 -7.035,-7.035c0,-3.96865 3.06635,-7.035 7.035,-7.035zM168.21,168.21c3.96865,0 7.035,3.06635 7.035,7.035c0,3.96865 -3.06635,7.035 -7.035,7.035c-3.96865,0 -7.035,-3.06635 -7.035,-7.035c0,-3.96865 3.06635,-7.035 7.035,-7.035z"/></g></g></svg>
