<!DOCTYPE svg PUBLIC "-//W3C//DTD SVG 20010904//EN" "http://www.w3.org/TR/2001/REC-SVG-20010904/DTD/svg10.dtd">
<svg version="1.0" xmlns="http://www.w3.org/2000/svg" width="385px" height="406px" viewBox="0 0 3850 4060" preserveAspectRatio="xMidYMid meet">
<g id="layer101" fill="#ffffff" stroke="none">
 <path d="M1850 3848 c-18 -27 -20 -44 -17 -96 4 -54 9 -66 33 -87 32 -28 42 -30 65 -12 28 22 41 58 40 115 0 69 -24 106 -69 110 -26 3 -35 -2 -52 -30z"/>
 <path d="M2111 3844 c-18 -21 -26 -141 -12 -176 14 -38 68 -39 99 -3 28 32 39 128 20 165 -17 31 -84 40 -107 14z"/>
 <path d="M1590 3835 c-18 -22 -14 -129 7 -162 38 -60 71 -68 102 -24 35 49 21 164 -23 193 -19 13 -73 9 -86 -7z"/>
 <path d="M2373 3798 c-34 -37 -43 -64 -43 -120 0 -55 4 -64 31 -85 13 -11 22 -10 48 3 38 19 60 59 68 125 5 43 3 53 -17 74 -29 31 -60 32 -87 3z"/>
 <path d="M1394 3716 c-15 -11 -19 -26 -18 -68 2 -81 45 -148 96 -148 31 0 47 29 48 83 0 105 -66 176 -126 133z"/>
 <path d="M1112 3688 c-7 -7 -12 -33 -12 -58 0 -117 133 -203 154 -99 15 74 -40 169 -98 169 -18 0 -37 -5 -44 -12z"/>
 <path d="M2817 3586 c-42 -42 -62 -108 -44 -146 10 -20 20 -25 48 -24 63 2 108 60 111 146 2 47 -7 58 -47 58 -26 0 -43 -9 -68 -34z"/>
 <path d="M1794 3552 c-33 -21 -35 -114 -3 -148 48 -52 105 -16 103 67 0 32 -7 55 -19 69 -18 20 -60 26 -81 12z"/>
 <path d="M2080 3528 c-25 -27 -28 -109 -4 -132 39 -39 84 1 84 73 0 75 -38 104 -80 59z"/>
 <path d="M697 3428 c-11 -6 -17 -21 -17 -44 0 -76 69 -148 137 -142 35 3 38 6 41 36 9 87 -97 186 -161 150z"/>
 <path d="M2624 3356 c-9 -39 -1 -59 29 -67 32 -9 57 11 57 45 0 30 -18 46 -52 46 -21 0 -29 -6 -34 -24z"/>
 <path d="M2362 3326 c-33 -16 -47 -64 -30 -102 9 -20 19 -24 55 -24 53 0 73 17 73 62 0 38 -15 58 -42 58 -10 0 -18 5 -18 10 0 12 -8 11 -38 -4z"/>
 <path d="M1421 3306 c-46 -55 9 -134 76 -109 43 16 57 68 29 106 -16 21 -88 23 -105 3z"/>
 <path d="M3181 3271 c-45 -44 -51 -55 -51 -91 0 -34 4 -42 26 -52 22 -10 32 -8 70 12 62 33 94 73 94 119 0 45 -14 61 -56 61 -26 0 -44 -11 -83 -49z"/>
 <path d="M507 3239 c-18 -25 -9 -66 25 -108 30 -38 59 -51 112 -51 39 0 44 3 49 26 6 35 -31 104 -72 131 -44 29 -95 30 -114 2z"/>
 <path d="M2865 3250 c-27 -4 -30 -10 -33 -45 -4 -48 14 -65 61 -56 29 6 32 11 35 46 3 47 -16 64 -63 55z"/>
 <path d="M944 3216 c-15 -61 73 -169 118 -145 33 18 20 93 -23 143 -31 36 -86 37 -95 2z"/>
 <path d="M2235 3180 c-11 -35 3 -60 36 -60 26 0 29 3 29 30 0 24 -6 33 -26 40 -33 13 -32 13 -39 -10z"/>
 <path d="M1566 3163 c-15 -28 -16 -28 -22 -5 -14 48 -124 17 -124 -35 0 -18 20 -56 34 -65 34 -23 106 6 106 43 0 16 7 19 40 19 37 0 40 2 40 29 0 48 -51 57 -74 14z"/>
 <path d="M2321 3150 c-14 -42 -4 -90 20 -90 10 0 21 -4 24 -10 3 -5 -3 -10 -14 -10 -25 0 -39 -43 -21 -65 18 -22 37 -18 56 11 12 18 14 28 6 36 -11 11 7 38 26 38 10 0 32 44 32 64 0 29 -37 56 -78 56 -36 0 -41 -3 -51 -30z"/>
 <path d="M3379 3121 c-48 -24 -80 -47 -74 -53 3 -3 -1 -11 -10 -18 -8 -7 -15 -28 -15 -46 0 -28 5 -36 25 -44 14 -5 30 -8 37 -6 7 3 25 7 41 10 41 9 97 68 97 103 0 35 -20 65 -46 69 -10 1 -35 -5 -55 -15z"/>
 <path d="M1572 3053 c-6 -18 -6 -36 1 -51 9 -19 17 -23 51 -20 36 3 41 7 50 35 12 43 -5 63 -54 63 -33 0 -39 -4 -48 -27z"/>
 <path d="M2194 3055 c-3 -14 -3 -36 0 -50 5 -21 12 -25 42 -25 40 0 64 18 64 48 0 42 -11 52 -56 52 -38 0 -44 -3 -50 -25z"/>
 <path d="M350 3034 c-21 -53 42 -125 121 -139 45 -8 79 8 79 36 0 66 -72 129 -149 129 -35 0 -43 -4 -51 -26z"/>
 <path d="M1481 3016 c-20 -24 -4 -56 27 -56 25 -1 25 -2 10 -14 -25 -19 -24 -96 1 -124 19 -23 91 -32 91 -12 0 6 7 10 15 10 10 0 15 -10 15 -31 0 -26 -3 -29 -20 -24 -11 3 -29 3 -41 0 -16 -5 -19 -14 -17 -38 3 -29 6 -32 38 -32 29 0 36 4 38 23 2 14 10 22 22 22 14 0 20 -9 22 -37 3 -34 6 -38 34 -41 21 -2 33 2 37 12 10 26 -4 46 -32 47 l-26 0 23 16 c14 10 22 26 22 43 0 51 -9 60 -56 60 -42 0 -44 1 -38 25 8 34 -3 75 -21 75 -8 0 -15 5 -15 10 0 6 -15 10 -34 10 -32 0 -35 3 -38 33 -3 36 -35 49 -57 23z"/>
 <path d="M673 2983 c-14 -5 -17 -41 -7 -67 10 -26 62 -20 75 8 21 45 -19 79 -68 59z"/>
 <path d="M3130 2969 c-41 -17 -60 -40 -60 -75 0 -28 5 -35 26 -40 37 -10 84 7 108 39 19 26 19 30 5 55 -16 30 -41 36 -79 21z"/>
 <path d="M2238 2938 c-27 -33 -23 -80 8 -112 36 -35 70 -33 106 5 26 27 29 36 23 67 -8 45 -29 61 -80 62 -29 0 -45 -6 -57 -22z"/>
 <path d="M1093 2910 c-45 -18 -18 -122 35 -135 44 -11 62 2 62 46 0 31 -7 47 -29 70 -32 31 -35 32 -68 19z"/>
 <path d="M2720 2907 c-45 -35 -65 -108 -38 -135 29 -29 116 -8 143 35 17 25 23 82 11 101 -9 16 -97 15 -116 -1z"/>
 <path d="M3460 2852 c-91 -11 -163 -76 -144 -130 8 -23 16 -27 52 -30 30 -2 57 4 85 18 54 27 67 45 67 90 0 40 -20 57 -60 52z"/>
 <path d="M2130 2825 c-9 -11 -10 -25 -4 -48 8 -28 15 -32 47 -35 31 -3 39 1 48 22 6 13 9 36 5 50 -5 22 -12 26 -45 26 -22 0 -44 -6 -51 -15z"/>
 <path d="M887 2793 c-14 -14 -7 -52 12 -58 39 -12 60 11 45 49 -6 16 -45 22 -57 9z"/>
 <path d="M430 2763 c-25 -17 -26 -60 -2 -89 34 -41 70 -55 130 -52 l57 3 3 37 c2 28 -3 42 -24 63 -46 46 -126 64 -164 38z"/>
 <path d="M2230 2751 c-13 -25 -13 -51 0 -51 6 0 10 -4 10 -10 0 -5 -8 -10 -17 -10 -9 0 -24 -6 -32 -14 -14 -13 -16 -11 -16 22 0 33 -3 37 -25 37 -21 0 -26 -5 -28 -32 -3 -28 0 -33 17 -33 18 0 21 -6 21 -38 0 -53 28 -84 71 -80 24 2 38 11 50 33 20 34 15 85 -7 85 -21 0 -17 14 9 25 26 12 36 63 15 76 -23 15 -57 10 -68 -10z"/>
 <path d="M2392 2754 c-45 -31 -20 -104 36 -104 39 0 52 12 58 52 5 29 2 38 -17 52 -29 20 -48 20 -77 0z"/>
 <path d="M3584 2699 c-70 -34 -104 -95 -72 -127 17 -17 113 -15 148 3 49 26 74 78 52 112 -4 7 -26 16 -48 21 -33 7 -49 6 -80 -9z"/>
 <path d="M1610 2663 c-31 -13 -42 -32 -35 -65 10 -43 27 -58 66 -58 63 0 91 71 43 109 -27 21 -46 25 -74 14z"/>
 <path d="M132 2595 c-12 -15 -18 -34 -15 -45 7 -26 59 -70 83 -70 10 0 22 -4 25 -10 9 -15 52 -12 85 5 79 41 -3 145 -114 145 -36 0 -48 -5 -64 -25z"/>
 <path d="M3328 2603 c-34 -17 -51 -47 -43 -73 7 -23 30 -29 75 -17 47 12 70 34 70 67 0 23 -5 29 -31 34 -38 7 -37 7 -71 -11z"/>
 <path d="M1723 2567 c-13 -7 -24 -24 -28 -45 -9 -46 14 -79 59 -84 19 -2 33 -1 30 3 -2 4 0 10 6 14 5 3 10 -1 10 -10 0 -8 -7 -18 -15 -21 -19 -7 -19 -34 -2 -58 10 -14 21 -17 44 -12 17 4 34 14 37 22 8 22 -15 64 -35 64 -15 0 -18 6 -13 33 3 17 8 38 10 45 4 15 -11 33 -43 50 -25 14 -30 14 -60 -1z"/>
 <path d="M2080 2570 c0 -5 -7 -10 -15 -10 -20 0 -30 -47 -17 -82 9 -25 8 -29 -14 -34 -13 -3 -24 -9 -25 -13 0 -3 -2 -14 -4 -25 -2 -10 -1 -24 2 -32 6 -17 69 -19 79 -3 4 8 12 3 20 -12 19 -35 17 -40 -13 -28 -20 7 -34 7 -53 -3 -34 -18 -40 -27 -40 -68 0 -54 23 -80 71 -80 64 0 96 44 73 99 -8 18 -14 35 -14 37 0 1 19 4 43 6 42 3 42 3 45 46 5 69 -45 94 -93 46 -15 -15 -17 -15 -30 2 -12 17 -11 19 19 22 26 2 36 10 49 38 22 45 22 50 -8 79 -24 25 -75 35 -75 15z"/>
 <path d="M2781 2528 c-10 -27 3 -48 29 -48 28 0 43 25 30 49 -14 28 -48 27 -59 -1z"/>
 <path d="M440 2479 c-49 -20 -54 -67 -11 -110 26 -25 37 -29 85 -29 48 0 58 3 72 25 26 40 10 83 -40 106 -46 21 -69 22 -106 8z"/>
 <path d="M2303 2483 c-7 -2 -13 -18 -13 -34 0 -26 4 -29 30 -29 26 0 30 3 30 29 0 17 -6 31 -16 35 -9 3 -16 6 -17 5 -1 0 -8 -3 -14 -6z"/>
 <path d="M1485 2463 c-18 -18 -19 -24 -2 -47 18 -25 49 -16 58 16 10 40 -27 60 -56 31z"/>
 <path d="M3636 2454 c-46 -17 -65 -39 -66 -76 0 -35 23 -47 92 -50 41 -2 63 3 91 21 33 20 37 27 37 62 0 33 -4 41 -26 49 -35 14 -81 11 -128 -6z"/>
 <path d="M1673 2423 c-26 -5 -39 -39 -29 -77 6 -26 54 -44 77 -30 9 5 10 2 4 -12 -14 -31 -6 -96 13 -110 9 -8 34 -14 56 -14 63 0 93 52 65 113 -12 27 -68 52 -83 37 -6 -6 -17 -10 -25 -10 -12 0 -12 3 -3 12 20 20 14 65 -10 82 -23 16 -26 17 -65 9z"/>
 <path d="M761 2386 c-21 -26 -9 -51 24 -51 27 0 30 3 30 30 0 23 -5 31 -21 33 -11 2 -26 -4 -33 -12z"/>
 <path d="M90 2367 c-20 -10 -25 -20 -25 -51 0 -56 34 -79 118 -80 73 -1 97 12 97 55 0 36 -30 64 -85 78 -56 14 -74 14 -105 -2z"/>
 <path d="M2480 2242 c-53 -36 -67 -82 -30 -102 52 -28 154 32 148 87 -3 26 -7 28 -48 30 -29 2 -54 -4 -70 -15z"/>
 <path d="M3643 2194 c-69 -54 -28 -114 77 -114 102 0 156 66 98 120 -34 31 -132 28 -175 -6z"/>
 <path d="M1872 2184 c-29 -33 11 -80 48 -56 18 11 20 10 20 -14 0 -14 7 -33 16 -42 18 -17 80 -20 96 -4 17 17 12 82 -8 97 -22 17 -74 20 -74 5 0 -18 -29 -11 -42 10 -15 24 -38 25 -56 4z"/>
 <path d="M3023 2177 c-25 -25 -30 -66 -11 -85 28 -28 127 0 154 43 8 13 9 28 3 43 -7 19 -15 22 -66 21 -46 0 -63 -5 -80 -22z"/>
 <path d="M3439 2173 c-17 -45 2 -73 50 -73 41 0 51 11 51 54 0 31 -19 46 -57 46 -27 0 -35 -5 -44 -27z"/>
 <path d="M2084 2145 c-11 -27 5 -65 26 -65 24 0 43 34 35 60 -8 24 -53 27 -61 5z"/>
 <path d="M362 2120 c-26 -24 -28 -47 -6 -78 28 -40 94 -19 94 31 0 26 -34 67 -55 67 -6 0 -21 -9 -33 -20z"/>
 <path d="M1119 2128 c-37 -13 -49 -35 -38 -70 4 -17 16 -36 26 -43 24 -18 76 -25 110 -16 36 10 48 58 23 92 -22 29 -88 49 -121 37z"/>
 <path d="M1747 2126 c-51 -39 -36 -121 28 -152 62 -29 116 12 118 91 1 28 -5 41 -23 56 -29 22 -97 25 -123 5z"/>
 <path d="M48 2106 c-11 -8 -18 -27 -18 -49 0 -50 34 -72 110 -72 71 0 110 23 110 65 0 44 -47 70 -125 70 -34 -1 -68 -6 -77 -14z"/>
 <path d="M2052 2043 c-48 -10 -56 -105 -12 -136 28 -20 83 -16 106 8 18 18 18 93 0 111 -17 16 -60 24 -94 17z"/>
 <path d="M3325 2001 c-37 -17 -45 -28 -45 -63 0 -42 24 -58 89 -58 70 0 101 23 101 75 0 40 -5 44 -68 54 -33 5 -56 3 -77 -8z"/>
 <path d="M1899 1974 c-15 -40 11 -74 56 -74 19 0 35 3 36 8 0 4 2 16 5 27 7 36 -16 65 -53 65 -27 0 -35 -5 -44 -26z"/>
 <path d="M2664 1966 c-11 -28 4 -46 36 -46 28 0 31 3 28 28 -2 21 -9 28 -31 30 -18 2 -29 -2 -33 -12z"/>
 <path d="M1768 1898 c-24 -29 -23 -89 1 -116 26 -30 96 -30 128 0 l23 21 2 -24 c0 -13 1 -30 0 -38 -1 -20 58 -81 79 -81 9 0 19 -5 21 -11 2 -7 23 -3 59 10 68 26 91 63 79 128 -11 62 -55 93 -132 93 -32 0 -47 -6 -70 -30 -35 -37 -38 -37 -38 -2 -1 47 -31 72 -87 72 -37 0 -52 -5 -65 -22z"/>
 <path d="M3674 1910 c-65 -20 -73 -80 -15 -114 42 -25 142 -26 166 -2 26 25 16 88 -15 103 -37 18 -100 23 -136 13z"/>
 <path d="M1333 1785 c-40 -17 -57 -48 -48 -91 7 -39 29 -54 79 -54 40 0 66 28 66 71 0 40 -9 58 -39 73 -22 12 -32 12 -58 1z"/>
 <path d="M3321 1746 c-7 -8 -11 -30 -9 -48 3 -32 4 -33 48 -33 44 0 45 1 48 33 4 41 -12 62 -48 62 -15 0 -33 -6 -39 -14z"/>
 <path d="M832 1720 c-42 -40 -24 -80 39 -87 61 -6 115 22 111 57 -6 40 -21 50 -76 50 -39 0 -58 -5 -74 -20z"/>
 <path d="M1737 1726 c-31 -24 -38 -70 -16 -105 25 -41 40 -46 94 -30 40 12 45 17 46 44 2 53 -2 78 -16 92 -17 17 -85 16 -108 -1z"/>
 <path d="M2345 1704 c-14 -10 -20 -26 -20 -54 0 -27 6 -44 20 -55 21 -16 68 -13 92 6 17 14 17 70 0 93 -16 22 -67 28 -92 10z"/>
 <path d="M1884 1674 c-8 -30 6 -47 32 -42 23 4 31 47 12 59 -23 15 -37 10 -44 -17z"/>
 <path d="M370 1661 c-17 -32 -12 -60 15 -77 25 -16 63 -12 77 10 12 17 9 61 -4 74 -20 20 -76 15 -88 -7z"/>
 <path d="M3613 1660 c-36 -15 -32 -72 7 -100 42 -30 131 -38 165 -16 35 23 31 71 -7 99 -31 23 -128 33 -165 17z"/>
 <path d="M2081 1636 c-12 -14 -5 -46 9 -46 5 0 14 -2 22 -5 20 -8 42 33 27 51 -15 18 -43 18 -58 0z"/>
 <path d="M2988 1639 c-47 -27 -1 -99 62 -99 42 0 67 22 66 60 -1 41 -82 66 -128 39z"/>
 <path d="M1567 1628 c-7 -22 4 -47 24 -53 27 -9 39 2 39 36 0 25 -4 29 -29 29 -16 0 -31 -6 -34 -12z"/>
 <path d="M118 1614 c-77 -41 -55 -124 34 -124 104 0 188 93 117 130 -27 15 -120 11 -151 -6z"/>
 <path d="M1946 1615 c-9 -10 -20 -30 -23 -46 -6 -30 -18 -38 -26 -16 -2 8 -24 12 -64 12 -51 -1 -63 -4 -86 -27 -41 -41 -36 -120 9 -165 18 -18 93 -20 130 -3 25 11 34 23 42 59 6 27 7 54 1 68 -11 28 1 30 21 3 21 -29 80 -27 108 3 45 48 17 114 -54 124 -30 4 -45 1 -58 -12z"/>
 <path d="M2670 1581 c0 -37 33 -52 58 -27 22 22 5 50 -32 54 -23 3 -26 0 -26 -27z"/>
 <path d="M2111 1519 c-27 -16 -31 -24 -31 -62 0 -52 22 -77 68 -77 23 0 37 8 56 33 15 19 26 39 26 45 0 24 -24 61 -44 67 -40 13 -44 13 -75 -6z"/>
 <path d="M1580 1507 c-36 -17 -49 -37 -50 -79 0 -57 40 -86 104 -74 24 5 37 15 49 41 15 32 15 38 1 68 -8 18 -27 38 -42 45 -30 14 -30 14 -62 -1z"/>
 <path d="M3440 1477 c-76 -39 6 -137 114 -137 69 0 95 38 60 88 -31 45 -128 73 -174 49z"/>
 <path d="M418 1456 c-7 -33 9 -56 37 -56 18 0 26 7 31 25 9 37 -2 55 -35 55 -22 0 -30 -5 -33 -24z"/>
 <path d="M1953 1445 c-16 -18 -17 -77 -1 -93 7 -7 28 -12 48 -12 20 0 41 5 48 12 17 17 15 76 -2 94 -19 18 -77 18 -93 -1z"/>
 <path d="M2232 1410 c-8 -17 -17 -28 -21 -26 -4 3 -5 -11 -3 -30 8 -64 80 -95 130 -56 19 15 24 28 24 65 0 59 -17 77 -74 77 -38 0 -45 -3 -56 -30z"/>
 <path d="M2813 1417 c-14 -31 1 -57 32 -57 29 0 41 31 23 59 -17 28 -42 27 -55 -2z"/>
 <path d="M1438 1406 c-16 -5 -28 -12 -28 -15 0 -3 -4 -12 -9 -20 -8 -12 -12 -12 -26 2 -20 21 -29 21 -49 1 -20 -19 -20 -29 -1 -47 15 -15 55 -12 55 4 0 22 18 6 24 -21 5 -29 7 -30 61 -30 32 0 55 -4 55 -11 0 -6 14 -9 33 -7 26 2 33 8 35 28 2 20 -3 28 -26 36 -20 8 -31 20 -35 40 -7 36 -49 55 -89 40z"/>
 <path d="M2420 1410 c0 -5 -6 -10 -14 -10 -17 0 -26 -22 -26 -60 0 -52 8 -60 61 -60 27 0 50 3 50 8 1 4 3 28 4 54 3 44 1 48 -27 63 -36 18 -48 19 -48 5z"/>
 <path d="M2525 1360 c-8 -25 1 -40 24 -40 24 0 45 25 37 45 -8 23 -53 19 -61 -5z"/>
 <path d="M1223 1320 c-18 -7 -23 -17 -23 -43 0 -40 15 -57 50 -57 42 0 65 63 34 94 -17 18 -29 19 -61 6z"/>
 <path d="M2615 1306 c-14 -14 -27 -20 -30 -15 -4 5 -21 9 -39 9 -45 0 -67 -37 -42 -75 26 -39 96 -28 96 16 0 8 6 7 18 -4 25 -23 69 -22 82 2 14 28 12 57 -6 75 -22 23 -51 20 -79 -8z"/>
 <path d="M1343 1303 c-24 -5 -36 -33 -29 -68 3 -11 5 -23 5 -27 1 -13 66 -9 79 4 18 18 14 63 -6 81 -10 10 -20 16 -23 16 -2 -1 -14 -4 -26 -6z"/>
 <path d="M3200 1290 c0 -5 -7 -10 -15 -10 -11 0 -15 -11 -15 -38 0 -46 27 -75 84 -91 98 -26 129 86 36 131 -39 19 -90 23 -90 8z"/>
 <path d="M1845 1267 c-71 -43 -109 -116 -102 -198 6 -73 45 -149 76 -149 6 0 11 -4 11 -10 0 -5 9 -10 19 -10 11 0 23 -4 26 -10 9 -15 108 -12 146 4 80 33 119 100 119 200 0 62 -9 86 -46 123 -13 13 -24 28 -24 33 0 6 -9 10 -19 10 -11 0 -23 5 -26 10 -9 14 -156 11 -180 -3z"/>
 <path d="M1080 1228 c-11 -18 -20 -37 -20 -43 0 -5 -9 5 -20 23 -16 26 -26 32 -55 32 -52 0 -80 -29 -78 -82 3 -66 47 -94 107 -66 25 11 38 33 45 76 0 4 12 -5 25 -20 63 -74 166 11 110 90 -11 16 -25 22 -55 22 -34 0 -42 -5 -59 -32z"/>
 <path d="M2716 1238 c-36 -51 -5 -118 55 -118 42 0 56 18 56 70 0 54 -14 70 -61 70 -25 0 -39 -6 -50 -22z"/>
 <path d="M2876 1218 c-39 -55 -6 -138 55 -138 39 0 79 50 73 92 -7 62 -95 93 -128 46z"/>
 <path d="M3453 1223 c-16 -6 -16 -63 0 -83 45 -57 137 -85 176 -53 71 58 -81 175 -176 136z"/>
 <path d="M336 1180 c-74 -22 -115 -114 -65 -141 49 -26 144 14 175 73 18 34 18 43 -2 62 -17 17 -62 19 -108 6z"/>
 <path d="M1253 1142 c-11 -7 -16 -26 -14 -49 0 -7 14 -13 31 -13 23 0 31 5 36 25 4 14 5 27 3 29 -11 10 -45 15 -56 8z"/>
 <path d="M2594 1106 c-12 -31 0 -61 25 -61 31 0 50 28 35 53 -14 22 -52 28 -60 8z"/>
 <path d="M2326 1085 c-8 -22 14 -65 33 -65 22 0 43 37 36 61 -8 23 -60 27 -69 4z"/>
 <path d="M2740 1043 c-51 -21 -32 -116 30 -148 35 -18 81 -20 98 -3 23 23 14 85 -15 117 -28 30 -82 46 -113 34z"/>
 <path d="M1038 1033 c-38 -9 -32 -73 7 -73 30 0 45 20 35 46 -10 26 -19 32 -42 27z"/>
 <path d="M443 963 c-43 -28 -63 -58 -63 -96 0 -34 19 -47 67 -47 37 0 49 6 88 43 37 36 45 50 45 79 0 23 -5 38 -16 42 -34 13 -82 5 -121 -21z"/>
 <path d="M3303 983 c-22 -8 -15 -66 11 -95 13 -16 28 -28 35 -28 6 0 11 -4 11 -9 0 -12 75 -23 105 -15 28 7 39 33 30 74 -11 50 -134 97 -192 73z"/>
 <path d="M1582 960 c-47 -44 -10 -100 54 -84 44 11 26 102 -22 104 -5 0 -20 -9 -32 -20z"/>
 <path d="M772 928 c-13 -13 -16 -47 -6 -72 9 -22 89 -22 98 0 10 25 7 59 -6 72 -16 16 -70 16 -86 0z"/>
 <path d="M1231 926 c-25 -30 -23 -64 7 -84 25 -18 30 -19 55 -6 21 11 27 22 27 47 0 18 -5 38 -12 45 -16 16 -63 15 -77 -2z"/>
 <path d="M1733 845 c-14 -15 -17 -44 -7 -69 8 -21 94 -23 94 -2 0 8 3 21 6 29 8 21 -30 57 -58 57 -13 -1 -29 -7 -35 -15z"/>
 <path d="M2032 819 c-28 -45 26 -103 72 -77 28 15 37 44 24 72 -15 34 -76 37 -96 5z"/>
 <path d="M2203 825 c-30 -33 -6 -104 35 -105 21 0 52 39 52 66 0 45 -59 71 -87 39z"/>
 <path d="M653 808 c-73 -16 -134 -99 -109 -149 10 -21 19 -24 60 -22 35 1 55 8 73 25 33 31 53 70 53 106 0 26 -16 54 -29 51 -4 -1 -25 -5 -48 -11z"/>
 <path d="M2944 805 c-4 -8 -3 -26 0 -40 5 -18 13 -25 32 -25 30 0 47 35 30 62 -13 22 -54 24 -62 3z"/>
 <path d="M1092 760 c-24 -23 -35 -56 -30 -91 2 -19 10 -25 37 -27 60 -6 100 58 75 122 -9 23 -56 20 -82 -4z"/>
 <path d="M3136 764 c-20 -19 -20 -28 -1 -64 19 -38 78 -65 138 -65 52 0 67 12 67 56 0 28 -21 56 -57 77 -33 18 -128 16 -147 -4z"/>
 <path d="M1908 743 c-21 -5 -25 -72 -6 -91 16 -16 49 -15 71 2 20 16 24 86 5 86 -7 0 -22 2 -33 4 -11 2 -28 2 -37 -1z"/>
 <path d="M1591 684 c-13 -46 3 -64 53 -64 29 0 37 4 41 23 4 12 1 35 -4 50 -9 22 -17 27 -45 27 -32 0 -36 -3 -45 -36z"/>
 <path d="M2364 695 c-32 -49 9 -106 59 -82 31 14 41 54 21 85 -20 30 -59 29 -80 -3z"/>
 <path d="M1398 687 c-30 -23 -27 -69 6 -90 51 -34 106 26 72 78 -18 27 -51 32 -78 12z"/>
 <path d="M2138 626 c-33 -25 -16 -106 22 -106 6 0 22 7 35 16 44 29 26 103 -25 103 -8 0 -23 -6 -32 -13z"/>
 <path d="M1764 586 c-3 -8 -4 -29 -2 -48 3 -30 6 -33 39 -36 30 -3 37 1 47 23 15 34 15 43 -2 61 -19 18 -75 18 -82 0z"/>
 <path d="M890 570 c0 -5 -4 -10 -10 -10 -16 0 -50 -33 -66 -62 -39 -75 -1 -133 71 -107 35 13 75 54 75 78 0 6 5 11 10 11 11 0 14 59 4 84 -7 18 -84 23 -84 6z"/>
 <path d="M1337 545 c-9 -7 -17 -24 -17 -39 0 -23 4 -26 34 -26 49 0 60 40 18 67 -13 8 -22 8 -35 -2z"/>
 <path d="M1953 525 c-14 -15 -17 -44 -7 -69 4 -11 19 -16 49 -16 51 0 65 22 45 71 -10 23 -18 29 -44 29 -17 -1 -37 -7 -43 -15z"/>
 <path d="M2817 533 c-22 -21 17 -133 46 -133 4 0 17 -9 29 -20 26 -23 83 -27 104 -6 24 25 17 80 -14 112 -15 16 -37 35 -50 42 -23 13 -104 17 -115 5z"/>
 <path d="M2295 510 c-13 -21 -15 -63 -4 -76 6 -8 29 -14 50 -14 33 0 39 3 41 23 1 24 1 58 -1 70 -2 11 -79 8 -86 -3z"/>
 <path d="M1499 476 c-7 -14 -9 -36 -5 -50 5 -22 12 -26 45 -26 41 0 51 11 51 54 0 30 -18 46 -52 46 -20 0 -32 -7 -39 -24z"/>
 <path d="M2098 429 c-12 -7 -18 -22 -18 -48 0 -28 5 -40 18 -45 9 -3 22 -8 27 -11 17 -8 55 33 55 59 0 25 -28 56 -51 56 -8 0 -22 -5 -31 -11z"/>
 <path d="M1707 413 c-12 -12 -7 -64 7 -79 28 -27 80 -11 87 27 2 8 -1 24 -5 37 -6 17 -15 22 -45 22 -21 0 -41 -3 -44 -7z"/>
 <path d="M2364 355 c-21 -32 -12 -67 22 -82 32 -15 62 0 70 35 9 31 -20 72 -51 72 -15 0 -31 -10 -41 -25z"/>
 <path d="M2598 369 c-23 -13 -24 -88 -2 -132 40 -76 113 -100 142 -47 17 30 3 94 -28 130 -11 13 -20 26 -20 30 0 5 -59 31 -71 30 -2 0 -12 -5 -21 -11z"/>
 <path d="M1188 340 c-7 -11 -18 -20 -25 -20 -6 0 -19 -23 -28 -51 -14 -41 -15 -55 -5 -80 11 -25 18 -29 50 -29 72 0 127 91 106 175 -5 21 -12 25 -46 25 -29 0 -43 -5 -52 -20z"/>
 <path d="M1360 297 c-32 -16 -37 -50 -11 -76 29 -29 65 -27 79 4 7 14 12 31 12 38 -1 35 -43 53 -80 34z"/>
 <path d="M2188 261 c-26 -26 -21 -81 7 -81 7 0 15 -5 17 -12 3 -8 12 -8 36 3 27 12 32 19 32 47 0 18 -6 40 -14 48 -20 19 -57 17 -78 -5z"/>
 <path d="M1555 236 c-12 -18 -13 -30 -6 -50 9 -23 16 -26 55 -26 40 0 44 2 49 28 13 63 -64 101 -98 48z"/>
 <path d="M1893 245 c-17 -19 -16 -60 1 -74 8 -7 30 -11 48 -9 36 3 46 26 34 74 -5 19 -13 24 -39 24 -17 -1 -38 -7 -44 -15z"/>
 <path d="M1760 208 c-27 -44 -32 -65 -28 -123 2 -38 8 -52 30 -68 23 -18 29 -18 57 -6 39 17 56 71 46 144 -11 87 -67 115 -105 53z"/>
 <path d="M2032 223 c-5 -10 -12 -39 -15 -66 -5 -37 -2 -57 15 -91 12 -25 28 -47 37 -49 9 -3 23 -8 31 -11 9 -4 25 2 38 14 18 17 22 32 22 76 0 58 -9 85 -43 122 -25 27 -72 30 -85 5z"/>
 </g>

</svg>