<?xml version="1.0"?>
<svg xmlns="http://www.w3.org/2000/svg" xmlns:xlink="http://www.w3.org/1999/xlink" version="1.1" viewBox="0 0 252 252" width="48px" height="48px"><g fill="none" fill-rule="nonzero" stroke="none" stroke-width="1" stroke-linecap="butt" stroke-linejoin="miter" stroke-miterlimit="10" stroke-dasharray="" stroke-dashoffset="0" font-family="none" font-weight="none" font-size="none" text-anchor="none" style="mix-blend-mode: normal"><path d="M0,252v-252h252v252z" fill="none"/><path d="M126,238.14c-61.93321,0 -112.14,-50.20679 -112.14,-112.14v0c0,-61.93321 50.20679,-112.14 112.14,-112.14h0c61.93321,0 112.14,50.20679 112.14,112.14v0c0,61.93321 -50.20679,112.14 -112.14,112.14z" fill="#ffffff"/><g fill="#666666"><path d="M160.65,68.25c-9.56833,0 -17.325,7.75667 -17.325,17.325c0.00353,1.08657 0.10927,2.1704 0.31582,3.23716l-41.09048,23.96851c-3.12972,-2.65126 -7.09859,-4.10612 -11.20034,-4.10566c-9.56833,0 -17.325,7.75667 -17.325,17.325c0,9.56833 7.75667,17.325 17.325,17.325c4.09541,-0.00803 8.05557,-1.46662 11.17778,-4.11695l41.11304,23.97979c-0.20655,1.06676 -0.31229,2.15059 -0.31582,3.23716c0,9.56833 7.75667,17.325 17.325,17.325c9.56833,0 17.325,-7.75667 17.325,-17.325c0,-9.56833 -7.75667,-17.325 -17.325,-17.325c-4.09929,0.00537 -8.06389,1.46412 -11.18906,4.11695l-41.10176,-23.97979c0.20655,-1.06676 0.31229,-2.15059 0.31582,-3.23716c-0.00353,-1.08657 -0.10927,-2.1704 -0.31582,-3.23716l41.09048,-23.96851c3.12972,2.65126 7.09859,4.10612 11.20034,4.10566c9.56833,0 17.325,-7.75667 17.325,-17.325c0,-9.56833 -7.75667,-17.325 -17.325,-17.325z"/></g></g></svg>
